<svg xmlns="http://www.w3.org/2000/svg" xmlns:xlink="http://www.w3.org/1999/xlink" width="158.707" height="125.725" viewBox="0 0 158.707 125.725">
  <defs>
    <clipPath id="clip-path">
      <path id="Shape_16" data-name="Shape 16" d="M892.848,1045.753l-7.02-1.881a3.765,3.765,0,0,1-2.668-3.767l.338-4.411a6.083,6.083,0,0,0-2.176-4.785,20.383,20.383,0,0,1-1.541-1.462,19.878,19.878,0,0,1-1.673-1.8,6.016,6.016,0,0,0-4.765-2.191l-4.49.345a3.767,3.767,0,0,1-3.767-2.668l-1.881-7.02a3.769,3.769,0,0,1,1.929-4.195l4.163-2a6.4,6.4,0,0,0,3.166-4.261l.752-3.032a6.807,6.807,0,0,0-.736-5.319l-2.835-4.144a3.768,3.768,0,0,1,.427-4.6l5.139-5.139a3.765,3.765,0,0,1,4.6-.427l3.516,2.406a6.122,6.122,0,0,0,5.236.52l3.944-1.27a6.931,6.931,0,0,0,4.232-3.335l2.161-4.506a3.768,3.768,0,0,1,4.2-1.93l7.019,1.881a3.765,3.765,0,0,1,2.668,3.768l-.308,4.038a5.736,5.736,0,0,0,2.253,4.676,21.787,21.787,0,0,1,2.821,2.437l1,1a6.073,6.073,0,0,0,4.7,1.935l5.853-.449a3.767,3.767,0,0,1,3.767,2.669l1.881,7.019a3.766,3.766,0,0,1-1.929,4.195l-4.738,2.272a6.262,6.262,0,0,0-3.119,4.269l-1.2,4.806a6.631,6.631,0,0,0,.684,5.3l3.46,5.058a3.766,3.766,0,0,1-.427,4.6l-5.139,5.139a3.766,3.766,0,0,1-4.6.427l-5.107-3.494a6.637,6.637,0,0,0-5.3-.685l-4.173,1.067a6.364,6.364,0,0,0-4.265,3.154l-1.853,3.864a3.8,3.8,0,0,1-3.351,2.037A3.263,3.263,0,0,1,892.848,1045.753Zm-.115-41.118a8.376,8.376,0,1,0,5.912-2.447A8.376,8.376,0,0,0,892.733,1004.635Zm-71.586,13.5a3.767,3.767,0,0,1-3.552-2.949l-1.168-6.227a5.624,5.624,0,0,0-3.4-3.893l-4.718-1.943a5.612,5.612,0,0,0-5.153.341l-5.237,3.584a3.767,3.767,0,0,1-4.6-.427l-5.658-5.658a3.766,3.766,0,0,1-.427-4.6l3.591-5.248a5.616,5.616,0,0,0,.344-5.155l-1.935-4.7a5.632,5.632,0,0,0-3.894-3.4l-6.246-1.172a3.767,3.767,0,0,1-2.948-3.553v-8a3.767,3.767,0,0,1,2.948-3.552l6.246-1.171a5.635,5.635,0,0,0,3.894-3.4l1.934-4.7a5.614,5.614,0,0,0-.344-5.154l-3.591-5.25a3.769,3.769,0,0,1,.427-4.6l5.657-5.656a3.765,3.765,0,0,1,4.6-.428l5.238,3.583a5.606,5.606,0,0,0,5.153.342l4.719-1.944a5.626,5.626,0,0,0,3.4-3.893l1.168-6.225a3.767,3.767,0,0,1,3.552-2.949h8a3.767,3.767,0,0,1,3.553,2.949l1.174,6.266a5.66,5.66,0,0,0,3.4,3.905l4.646,1.935a5.584,5.584,0,0,0,5.148-.332l5.314-3.635a3.763,3.763,0,0,1,4.6.427l5.658,5.657a3.766,3.766,0,0,1,.427,4.6l-3.683,5.382a5.635,5.635,0,0,0-.351,5.158l1.859,4.536a5.635,5.635,0,0,0,3.893,3.4l6.421,1.2a3.766,3.766,0,0,1,2.948,3.552v8a3.767,3.767,0,0,1-2.948,3.553l-6.421,1.2a5.63,5.63,0,0,0-3.893,3.4l-1.859,4.535a5.635,5.635,0,0,0,.351,5.158l3.683,5.382a3.766,3.766,0,0,1-.427,4.6l-5.658,5.658a3.767,3.767,0,0,1-4.6.427l-5.314-3.636a5.581,5.581,0,0,0-5.148-.333l-4.645,1.935a5.659,5.659,0,0,0-3.4,3.905l-1.174,6.267a3.767,3.767,0,0,1-3.553,2.949Zm-9.023-49a12.941,12.941,0,1,0,12.941-12.972A12.956,12.956,0,0,0,812.123,969.137Z" fill="#487fbc"/>
    </clipPath>
  </defs>
  <g id="Shape_16-2" data-name="Shape 16" transform="translate(-776.147 -920.137)">
    <path id="Shape_16-3" data-name="Shape 16" d="M892.848,1045.753l-7.02-1.881a3.765,3.765,0,0,1-2.668-3.767l.338-4.411a6.083,6.083,0,0,0-2.176-4.785,20.383,20.383,0,0,1-1.541-1.462,19.878,19.878,0,0,1-1.673-1.8,6.016,6.016,0,0,0-4.765-2.191l-4.49.345a3.767,3.767,0,0,1-3.767-2.668l-1.881-7.02a3.769,3.769,0,0,1,1.929-4.195l4.163-2a6.4,6.4,0,0,0,3.166-4.261l.752-3.032a6.807,6.807,0,0,0-.736-5.319l-2.835-4.144a3.768,3.768,0,0,1,.427-4.6l5.139-5.139a3.765,3.765,0,0,1,4.6-.427l3.516,2.406a6.122,6.122,0,0,0,5.236.52l3.944-1.27a6.931,6.931,0,0,0,4.232-3.335l2.161-4.506a3.768,3.768,0,0,1,4.2-1.93l7.019,1.881a3.765,3.765,0,0,1,2.668,3.768l-.308,4.038a5.736,5.736,0,0,0,2.253,4.676,21.787,21.787,0,0,1,2.821,2.437l1,1a6.073,6.073,0,0,0,4.7,1.935l5.853-.449a3.767,3.767,0,0,1,3.767,2.669l1.881,7.019a3.766,3.766,0,0,1-1.929,4.195l-4.738,2.272a6.262,6.262,0,0,0-3.119,4.269l-1.2,4.806a6.631,6.631,0,0,0,.684,5.3l3.46,5.058a3.766,3.766,0,0,1-.427,4.6l-5.139,5.139a3.766,3.766,0,0,1-4.6.427l-5.107-3.494a6.637,6.637,0,0,0-5.3-.685l-4.173,1.067a6.364,6.364,0,0,0-4.265,3.154l-1.853,3.864a3.8,3.8,0,0,1-3.351,2.037A3.263,3.263,0,0,1,892.848,1045.753Zm-.115-41.118a8.376,8.376,0,1,0,5.912-2.447A8.376,8.376,0,0,0,892.733,1004.635Zm-71.586,13.5a3.767,3.767,0,0,1-3.552-2.949l-1.168-6.227a5.624,5.624,0,0,0-3.4-3.893l-4.718-1.943a5.612,5.612,0,0,0-5.153.341l-5.237,3.584a3.767,3.767,0,0,1-4.6-.427l-5.658-5.658a3.766,3.766,0,0,1-.427-4.6l3.591-5.248a5.616,5.616,0,0,0,.344-5.155l-1.935-4.7a5.632,5.632,0,0,0-3.894-3.4l-6.246-1.172a3.767,3.767,0,0,1-2.948-3.553v-8a3.767,3.767,0,0,1,2.948-3.552l6.246-1.171a5.635,5.635,0,0,0,3.894-3.4l1.934-4.7a5.614,5.614,0,0,0-.344-5.154l-3.591-5.25a3.769,3.769,0,0,1,.427-4.6l5.657-5.656a3.765,3.765,0,0,1,4.6-.428l5.238,3.583a5.606,5.606,0,0,0,5.153.342l4.719-1.944a5.626,5.626,0,0,0,3.4-3.893l1.168-6.225a3.767,3.767,0,0,1,3.552-2.949h8a3.767,3.767,0,0,1,3.553,2.949l1.174,6.266a5.66,5.66,0,0,0,3.4,3.905l4.646,1.935a5.584,5.584,0,0,0,5.148-.332l5.314-3.635a3.763,3.763,0,0,1,4.6.427l5.658,5.657a3.766,3.766,0,0,1,.427,4.6l-3.683,5.382a5.635,5.635,0,0,0-.351,5.158l1.859,4.536a5.635,5.635,0,0,0,3.893,3.4l6.421,1.2a3.766,3.766,0,0,1,2.948,3.552v8a3.767,3.767,0,0,1-2.948,3.553l-6.421,1.2a5.63,5.63,0,0,0-3.893,3.4l-1.859,4.535a5.635,5.635,0,0,0,.351,5.158l3.683,5.382a3.766,3.766,0,0,1-.427,4.6l-5.658,5.658a3.767,3.767,0,0,1-4.6.427l-5.314-3.636a5.581,5.581,0,0,0-5.148-.333l-4.645,1.935a5.659,5.659,0,0,0-3.4,3.905l-1.174,6.267a3.767,3.767,0,0,1-3.553,2.949Zm-9.023-49a12.941,12.941,0,1,0,12.941-12.972A12.956,12.956,0,0,0,812.123,969.137Z" fill="#487fbc"/>
    <g id="Clip" clip-path="url(#clip-path)">
      <path id="Color_Fill_4" data-name="Color Fill 4" d="M889.727,1019.5a12.654,12.654,0,1,1,8.967,3.717A12.654,12.654,0,0,1,889.727,1019.5ZM806.62,969.14a18.44,18.44,0,1,1,18.44,18.481A18.46,18.46,0,0,1,806.62,969.14Z" fill="#daeaf2"/>
      <path id="Shape_20" data-name="Shape 20" d="M874,1039c-25-23-3-54-3-54l55,53s-11.854,11.393-27.573,11.394C890.881,1049.394,882.446,1046.77,874,1039Zm-85-35c-34-37,1-70,1-70l70,70s-16.447,16.442-37.482,16.444C812,1020.445,800.335,1016.334,789,1004Z" fill="#00234a" opacity="0.2"/>
    </g>
  </g>
</svg>
