<svg xmlns="http://www.w3.org/2000/svg" xmlns:xlink="http://www.w3.org/1999/xlink" width="160" height="160" viewBox="0 0 160 160">
  <defs>
    <clipPath id="clip-path">
      <path id="base" d="M300,2740a79.624,79.624,0,0,1-44.729-13.663,80.233,80.233,0,0,1-28.984-35.2,79.894,79.894,0,0,1,7.376-75.869,80.236,80.236,0,0,1,35.2-28.984,79.894,79.894,0,0,1,75.868,7.376,80.233,80.233,0,0,1,28.984,35.2,79.9,79.9,0,0,1-7.376,75.869,80.235,80.235,0,0,1-35.2,28.984A79.505,79.505,0,0,1,300,2740Zm0-147a67,67,0,1,0,67,67A67.075,67.075,0,0,0,300,2593Z" fill="#dfe8ed"/>
    </clipPath>
  </defs>
  <g id="Clip" transform="translate(-220 -2580)" clip-path="url(#clip-path)">
    <path id="Progress" d="M300,2569.333V2600.5s106.167,41.167,40.583,105.416c-27.735,27.171-74.9,19.048-92.75-20.05-20.917-45.814,19.8-73.647,19.8-73.647L249.5,2584.791s-57.972,50.962-22.263,120.64c23.6,46.041,79.5,43.709,105.763,33.818,58.683-22.1,59.667-91.583,36.667-125.583S300,2569.333,300,2569.333Z" fill="#30bae7"/>
  </g>
</svg>
