<svg xmlns="http://www.w3.org/2000/svg" xmlns:xlink="http://www.w3.org/1999/xlink" width="159.999" height="160" viewBox="0 0 159.999 160">
  <defs>
    <clipPath id="clip-path">
      <path id="Base" d="M580,2740a79.623,79.623,0,0,1-44.729-13.663,80.233,80.233,0,0,1-28.984-35.2,79.894,79.894,0,0,1,7.376-75.869,80.234,80.234,0,0,1,35.2-28.984,79.894,79.894,0,0,1,75.868,7.376,80.233,80.233,0,0,1,28.984,35.2,79.895,79.895,0,0,1-7.376,75.869,80.235,80.235,0,0,1-35.2,28.984A79.5,79.5,0,0,1,580,2740Zm0-147a67,67,0,1,0,67,67A67.075,67.075,0,0,0,580,2593Z" fill="#dfe8ed"/>
    </clipPath>
  </defs>
  <g id="Clip" transform="translate(-500 -2580)" clip-path="url(#clip-path)">
    <path id="Progress" d="M580,2569.333V2600.5s112.067,51.6,36.49,103.729C538.651,2757.916,521.6,2660,521.6,2660H491.812s12.061,113.442,121.187,79.25c59.839-18.749,59.667-91.583,36.667-125.583S580,2569.333,580,2569.333Z" fill="#d74680"/>
  </g>
</svg>
