<svg xmlns="http://www.w3.org/2000/svg" xmlns:xlink="http://www.w3.org/1999/xlink" width="160" height="160" viewBox="0 0 160 160">
  <defs>
    <clipPath id="clip-path">
      <path id="Base" d="M1140,2740a79.624,79.624,0,0,1-44.729-13.663,80.233,80.233,0,0,1-28.985-35.2,79.893,79.893,0,0,1,7.376-75.869,80.237,80.237,0,0,1,35.2-28.984,79.9,79.9,0,0,1,75.869,7.376,80.233,80.233,0,0,1,28.984,35.2,79.895,79.895,0,0,1-7.376,75.869,80.233,80.233,0,0,1-35.2,28.984A79.5,79.5,0,0,1,1140,2740Zm0-147a67,67,0,1,0,67,67A67.076,67.076,0,0,0,1140,2593Z" fill="#dfe8ed"/>
    </clipPath>
  </defs>
  <g id="Clip" transform="translate(-1060 -2580)" clip-path="url(#clip-path)">
    <path id="Progress" d="M1140,2569.333V2600.5s104.55,68.5,34.9,106.073c-102.674,55.381-87.573-76.885-87.573-76.885l-23.531-14.323s-12.618,38.032-3.473,72.123c10.088,37.607,44.9,70.811,112.682,51.762,60.369-16.967,59.667-91.583,36.667-125.583S1140,2569.333,1140,2569.333Z" fill="#eb7d4b"/>
  </g>
</svg>
