<svg xmlns="http://www.w3.org/2000/svg" width="32" height="32" viewBox="0 0 32 32">
  <g id="Mail_icon" data-name="Mail icon" transform="translate(-350 -2098)">
    <circle id="Base" cx="16" cy="16" r="16" transform="translate(350 2098)" fill="#bdd1df"/>
    <path id="Mail" d="M358.609,2110.178c.487.27,6.238,4.01,6.489,4.149a2.088,2.088,0,0,0,1.81,0c.251-.139,6-3.879,6.489-4.149s.949-1.118.053-1.118h-14.9C357.66,2109.06,358.121,2109.908,358.609,2110.178Zm15,2.06c-.554.3-6.357,3.967-6.7,4.15a2.088,2.088,0,0,1-1.81,0c-.339-.182-6.142-3.851-6.7-4.15-.39-.21-.387.036-.387.226v7.555a1.181,1.181,0,0,0,.991.988H373a1.181,1.181,0,0,0,.99-.988v-7.555C373.991,2112.274,373.994,2112.028,373.6,2112.238Z" fill="#fff"/>
  </g>
</svg>
