<svg xmlns="http://www.w3.org/2000/svg" width="32" height="32" viewBox="0 0 32 32">
  <g id="Twitter_icon" data-name="Twitter icon" transform="translate(-263 -2098)">
    <circle id="Base" cx="16" cy="16" r="16" transform="translate(263 2098)" fill="#bdd1df"/>
    <path id="Twitter" d="M287.984,2109.656a6.872,6.872,0,0,1-2,.557,3.538,3.538,0,0,0,1.531-1.956,6.9,6.9,0,0,1-2.211.858,3.452,3.452,0,0,0-2.541-1.116,3.508,3.508,0,0,0-3.481,3.535,3.594,3.594,0,0,0,.09.806,9.833,9.833,0,0,1-7.176-3.694,3.574,3.574,0,0,0,1.077,4.719,3.427,3.427,0,0,1-1.577-.442c0,.015,0,.029,0,.044a3.524,3.524,0,0,0,2.793,3.467,3.436,3.436,0,0,1-1.572.061,3.492,3.492,0,0,0,3.252,2.455,6.924,6.924,0,0,1-5.154,1.463,9.739,9.739,0,0,0,5.337,1.589,9.92,9.92,0,0,0,9.905-10.058q0-.23-.01-.458A7.128,7.128,0,0,0,287.984,2109.656Z" fill="#fff"/>
  </g>
</svg>
