<svg xmlns="http://www.w3.org/2000/svg" width="116.403" height="36.294" viewBox="0 0 116.403 36.294">
  <path id="logo" d="M211.982,78.043c0-12.115,8.327-20.47,20.7-20.334a22.4,22.4,0,0,1,12.042,3.308l-3.353,7.631a17.8,17.8,0,0,0-6.7-1.236c-6.109,0-9.092,3.965-9.263,9.087-.176,5.293,3.1,8.8,7.94,9.263a20.176,20.176,0,0,0,10.3-1.563l1.871-13.206h10.247l-1.822,12.831a1.687,1.687,0,0,0,1.609,2.075,2.379,2.379,0,0,0,2.16-2.075l1.821-12.831h10.248L267.79,85.265c-.242,1.738.361,2.842,4.1,1.328a15.221,15.221,0,0,1-.2-2.514c0-7.749,4.954-13.635,11.137-13.635a6.187,6.187,0,0,1,5.335,2.752l1.525-11.052H299.93l-3.26,23.29c-.207,1.615.51,2.832,4.5.741a15.465,15.465,0,0,1-.14-2.1c0-7.58,4.954-13.635,11.137-13.635A6.19,6.19,0,0,1,317.5,73.2l.3-2.2h10.248l-2.033,14.44c-.212,1.651.8,1.948,2.371,1.567l-.362,4.385a10.517,10.517,0,0,1-6.456,2.6c-3.134,0-5.125-1.44-5.8-3.514a8.986,8.986,0,0,1-7.24,3.514,6.617,6.617,0,0,1-5.643-3.057,21.342,21.342,0,0,1-10.659,3.057c-3.134-.041-5.125-1.44-5.8-3.514a8.987,8.987,0,0,1-7.241,3.514,6.6,6.6,0,0,1-5.577-2.961c-5.077,2.351-8.192,2.961-10.26,2.961-3.218,0-5.124-1.313-5.844-3.218a10.809,10.809,0,0,1-7.58,3.218,6.229,6.229,0,0,1-6.306-4.209,32.186,32.186,0,0,1-14.853,4.209c-.27.009-.538.014-.8.014C218.365,94,211.982,88.119,211.982,78.043Zm99.084,4.724c0,1.778.932,3.175,2.5,3.175,1.948,0,3.557-2.032,3.557-4.361,0-1.778-.974-3.176-2.5-3.176C312.633,78.4,311.066,80.438,311.066,82.767Zm-29.344,0c0,1.778.931,3.175,2.5,3.175,1.948,0,3.557-2.032,3.557-4.361,0-1.778-.974-3.176-2.5-3.176C283.289,78.4,281.722,80.438,281.722,82.767Z" transform="translate(-211.982 -57.707)" fill="#fff"/>
</svg>
